<svg width="32" height="32" viewBox="0 0 32 32" fill="none" xmlns="http://www.w3.org/2000/svg">
<path d="M31.9644 6.54707V24.4792C31.9644 25.5645 31.2787 26.5027 30.273 26.8729L16.8685 31.4422C16.5993 31.5436 16.3301 31.574 16.0457 31.574C15.7765 31.574 15.492 31.5385 15.2228 31.4422L1.75235 26.8374C0.782191 26.452 0.126953 25.5493 0.126953 24.4792V6.54707C0.126953 5.91316 0.360604 5.32488 0.782191 4.87354C1.06664 4.52362 1.48822 4.27005 1.95552 4.1382L15.3752 0.253569C15.812 0.121715 16.2793 0.121715 16.7162 0.253569L30.1358 4.13313C30.6031 4.26498 31.0247 4.51855 31.3092 4.86847C31.7257 5.31981 31.9644 5.90808 31.9644 6.542V6.54707Z" fill="#4E045E"/>
<path d="M31.9644 6.54707V24.4792C31.9644 25.5645 31.2787 26.5027 30.273 26.8729L16.8685 31.4422C16.5993 31.5436 16.3301 31.574 16.0457 31.574V10.0919L31.3091 4.87354C31.7257 5.32488 31.9644 5.91315 31.9644 6.54707Z" fill="#7818A8"/>
<path d="M16.0457 10.0919V31.574C15.7765 31.574 15.492 31.5385 15.2228 31.4422L1.75235 26.8374C0.782191 26.452 0.126953 25.5493 0.126953 24.4792V6.54707C0.126953 5.91315 0.360604 5.32488 0.782191 4.87354L16.0457 10.0919Z" fill="url(#paint0_linear_3378_121279)"/>
<path d="M31.309 4.87354L16.0455 10.0919L0.781982 4.87354C1.06643 4.52362 1.48801 4.27005 1.95532 4.1382L15.375 0.253569C15.8118 0.121715 16.2791 0.121715 16.7159 0.253569L30.1356 4.13313C30.6029 4.26498 31.0245 4.51855 31.309 4.86847V4.87354Z" fill="#A408C7"/>
<path d="M15.9999 28.7544L16.0304 31.9391L0.116699 26.5483V23.3686L15.9999 28.7544Z" fill="#7818A8"/>
<path d="M15.8474 28.8152L15.8169 32L31.8626 26.5534L31.8931 23.3585L15.8474 28.8152Z" fill="#4A0F7A"/>
<path d="M16.0152 10.0767L16.0457 13.2666L0.126953 7.87068V4.69096L16.0152 10.0767Z" fill="#7818A8"/>
<path d="M15.8628 10.1376L15.8323 13.3274L31.878 7.88082L31.9085 4.68082L15.8628 10.1376Z" fill="#4A0F7A"/>
<path d="M16.0456 10.1274V31.7464L14.4507 31.2089V9.58479L16.0456 10.1274Z" fill="url(#paint1_linear_3378_121279)"/>
<path d="M1.58984 5.22345V26.8425L0 26.3049V4.68082L1.58984 5.22345Z" fill="url(#paint2_linear_3378_121279)"/>
<path d="M16.0454 10.1274V31.7464L17.6353 31.2089V9.58479L16.0454 10.1274Z" fill="#FF981A"/>
<path d="M30.3899 5.21838V26.8425L31.9848 26.2998V4.68082L30.3899 5.21838Z" fill="#FF981A"/>
<path d="M16.0458 28.1762V31.9797L13.2166 31.0567V28.1965C13.2166 27.7299 13.6737 27.4003 14.1156 27.5423L16.0458 28.1712V28.1762Z" fill="url(#paint3_linear_3378_121279)"/>
<path d="M16.0454 28.1762V31.9797L18.8746 31.0567V28.1965C18.8746 27.7299 18.4175 27.4003 17.9756 27.5423L16.0454 28.1712V28.1762Z" fill="url(#paint4_linear_3378_121279)"/>
<path d="M16.0458 10.0513V13.8548L13.887 13.1499C13.4858 13.0181 13.2166 12.6479 13.2166 12.2219V9.12329L16.0458 10.0463V10.0513Z" fill="url(#paint5_linear_3378_121279)"/>
<path d="M16.0454 10.0513V13.8548L18.2041 13.1499C18.6054 13.0181 18.8746 12.6479 18.8746 12.2219V9.12329L16.0454 10.0463V10.0513Z" fill="url(#paint6_linear_3378_121279)"/>
<path d="M16.0455 10.0615L18.8747 9.12837L16.0455 8.2561L13.2112 9.12837L16.0455 10.0615Z" fill="#FF9514"/>
<path d="M29.1707 24.7125V27.4916L31.9999 26.5686V22.7651L30.1459 23.3686C29.5618 23.5613 29.1707 24.104 29.1707 24.7125Z" fill="url(#paint7_linear_3378_121279)"/>
<path d="M29.1604 5.59367V8.43868C29.1604 8.91031 29.6226 9.24502 30.0747 9.09795L31.9947 8.46911V4.66562L29.1655 5.5886L29.1604 5.59367Z" fill="url(#paint8_linear_3378_121279)"/>
<path d="M29.1605 5.6038L26.3313 4.67575L29.1605 3.79842L31.9948 4.67575L29.1605 5.6038Z" fill="#FF9514"/>
<path d="M2.82921 24.7125V27.4916L0 26.5686V22.7651L1.85397 23.3686C2.4381 23.5613 2.82921 24.104 2.82921 24.7125Z" fill="url(#paint9_linear_3378_121279)"/>
<path d="M2.82891 5.56831V8.41332C2.82891 8.88495 2.36669 9.21966 1.91463 9.07259L-0.00537109 8.44375V4.64026L2.82384 5.56324L2.82891 5.56831Z" fill="url(#paint10_linear_3378_121279)"/>
<path d="M2.83429 5.57844L5.66349 4.64532L2.82921 3.77306L0 4.64532L2.83429 5.57844Z" fill="#FF9514"/>
<path d="M16.0508 1.80539L18.88 0.872266L16.0458 0L13.2166 0.872266L16.0508 1.80539Z" fill="#FF9514"/>
<path d="M6.38459 12.303C6.38459 12.303 7.13634 12.2929 7.38523 12.303C7.63412 12.3131 7.90332 12.3639 8.19285 12.4653C8.73126 12.658 9.20872 12.9673 9.63031 13.3933C10.0519 13.8244 10.377 14.3265 10.6055 14.8944C10.8341 15.4675 10.9509 16.0406 10.9509 16.6085C10.9509 17.0599 10.8849 17.4301 10.7528 17.7192C10.6208 18.0082 10.4633 18.2415 10.2855 18.419C10.1078 18.5965 9.78269 18.8856 9.32046 19.2811C9.19348 19.3927 9.09189 19.4992 9.0157 19.5905C8.93951 19.6818 8.88364 19.773 8.843 19.8593C8.80745 19.9455 8.77697 20.0368 8.75665 20.1331C8.73634 20.2295 8.70586 20.3968 8.66523 20.6352C8.60935 21.0561 8.45189 21.2539 8.19792 21.2336C8.13697 21.2336 7.21253 21.2336 7.21253 21.2336C7.21253 21.2336 7.36999 19.0783 7.47158 18.7841C7.57316 18.49 7.69507 18.2719 7.85253 18.0894C8.00999 17.9068 8.2284 17.704 8.49761 17.4707C8.73634 17.2678 8.90904 17.1106 9.0157 17.0041C9.12237 16.8925 9.2138 16.7607 9.28491 16.6035C9.35602 16.4463 9.39666 16.2637 9.39666 16.0456C9.39666 15.6247 9.28491 15.2291 9.06142 14.8589C8.83792 14.4887 8.55348 14.2402 8.203 14.1135C7.79665 13.9664 7.49697 14.0019 7.30904 14.22C7.11602 14.438 6.95856 14.8032 6.8265 15.3154C6.72491 15.7616 6.54205 15.9797 6.28808 15.9645C6.23729 15.9645 5.29761 15.9645 5.29761 15.9645L6.39475 12.3081L6.38459 12.303ZM7.2938 24.3169L6.72491 21.8675C6.72491 21.8675 7.62904 21.8878 7.72554 21.8675C7.82205 21.8472 7.9338 21.8675 8.0557 21.9182C8.28935 22.0146 8.48745 22.2073 8.64491 22.4963C8.80745 22.7854 8.88364 23.0998 8.88364 23.4295C8.88364 23.7946 8.79729 24.0482 8.62967 24.1902C8.5484 24.2561 8.46205 24.2967 8.37062 24.3119C8.26904 24.3271 7.28364 24.3119 7.28364 24.3119L7.2938 24.3169Z" fill="#7818A8"/>
<path d="M4.32251 14.6916C4.32251 14.2048 4.43426 13.7483 4.65267 13.3274C4.87108 12.9065 5.19616 12.6073 5.61775 12.4247C6.04441 12.2472 6.54727 12.2574 7.12124 12.4602C7.65965 12.6529 8.13711 12.9623 8.5587 13.3883C8.98029 13.8193 9.30537 14.3214 9.53394 14.8894C9.76251 15.4624 9.87934 16.0355 9.87934 16.6035C9.87934 17.0548 9.8133 17.425 9.68124 17.7141C9.54918 18.0032 9.39172 18.2365 9.21394 18.414C9.03616 18.5914 8.71108 18.8805 8.24886 19.2761C8.12187 19.3876 8.02029 19.4941 7.9441 19.5854C7.86791 19.6767 7.81203 19.768 7.7714 19.8542C7.73584 19.9404 7.70537 20.0317 7.68505 20.1281C7.66473 20.2244 7.63426 20.3918 7.59362 20.6301C7.52251 21.1474 7.29902 21.33 6.9333 21.1778C6.74029 21.1017 6.57775 20.9445 6.45076 20.7163C6.3187 20.4881 6.25267 20.1991 6.25267 19.8491C6.25267 19.413 6.29838 19.0529 6.39489 18.774C6.4914 18.49 6.61838 18.2618 6.77584 18.0792C6.9333 17.8967 7.15172 17.6938 7.42092 17.4605C7.65965 17.2577 7.83235 17.1005 7.93902 16.994C8.04568 16.8824 8.13711 16.7506 8.20822 16.5933C8.27934 16.4361 8.31997 16.2536 8.31997 16.0355C8.31997 15.6146 8.20822 15.219 7.98473 14.8488C7.76124 14.4786 7.4768 14.2301 7.12632 14.1033C6.71997 13.9563 6.42029 13.9918 6.23235 14.2098C6.03934 14.4279 5.88187 14.793 5.74981 15.3052C5.62791 15.8428 5.38918 16.0456 5.04886 15.9189C4.84568 15.8428 4.67807 15.6754 4.53584 15.4219C4.3987 15.1683 4.32759 14.9198 4.32759 14.6865L4.32251 14.6916ZM6.98918 24.2612C6.76568 24.1648 6.56759 23.9823 6.39997 23.7033C6.23235 23.4295 6.15108 23.1049 6.15108 22.7398C6.15108 22.4152 6.23235 22.1718 6.39489 22.0146C6.55743 21.8574 6.75553 21.8269 6.99426 21.9233C7.23299 22.0197 7.426 22.2124 7.58346 22.5014C7.746 22.7905 7.82219 23.1049 7.82219 23.4346C7.82219 23.7997 7.73584 24.0533 7.56822 24.1952C7.4006 24.3372 7.20759 24.3575 6.98918 24.2662V24.2612Z" fill="#FFF190"/>
<path d="M21.1147 16.7556C21.1147 16.2485 21.2315 15.6906 21.4703 15.0821C21.7039 14.4786 22.0493 13.9258 22.4963 13.4238C22.9433 12.9268 23.4614 12.5718 24.0506 12.3639C24.3909 12.2422 24.7007 12.1864 24.9903 12.1965C25.163 12.1965 25.7268 12.2067 25.7268 12.2067C25.7268 12.2067 26.2042 12.6732 26.4277 13.0688C26.6461 13.4643 26.7579 13.941 26.7579 14.4989C26.7579 14.9401 26.6969 15.3458 26.5699 15.7261C26.443 16.1065 26.2956 16.4513 26.1179 16.7556C25.9452 17.065 25.6303 17.5924 25.1731 18.3429C25.0461 18.5559 24.9445 18.7385 24.8683 18.8906C24.7922 19.0428 24.7363 19.1797 24.6956 19.2964C24.6601 19.413 24.6296 19.5246 24.6093 19.6361C24.589 19.7477 24.5585 19.9404 24.5179 20.2092C24.4468 20.7822 24.5788 21.3401 24.5788 21.3401C24.5788 21.3401 23.7052 21.3401 23.6391 21.3452C23.5325 21.3452 23.436 21.3097 23.3496 21.2285C23.2125 21.1017 23.1464 20.8634 23.1464 20.5084C23.1464 20.0672 23.1972 19.6615 23.2937 19.2964C23.3903 18.9363 23.5223 18.5965 23.6849 18.2922C23.8474 17.9829 24.0658 17.6127 24.3401 17.1715C24.5788 16.7861 24.7515 16.5021 24.8582 16.3094C24.9649 16.1217 25.0512 15.9189 25.1274 15.7109C25.1985 15.503 25.2341 15.29 25.2341 15.077C25.2341 14.6612 25.1223 14.3468 24.9039 14.1439C24.6804 13.936 24.396 13.8954 24.0455 14.0273C23.629 14.1794 23.3242 14.433 23.1261 14.7981C22.928 15.1632 22.7604 15.6602 22.6233 16.2789C22.4912 16.9281 22.6131 17.496 22.6131 17.496C22.6131 17.496 21.7242 17.5062 21.6531 17.5011C21.5363 17.5011 21.4296 17.4453 21.3331 17.349C21.1858 17.1918 21.1096 16.994 21.1096 16.7506L21.1147 16.7556ZM24.589 24.4184C24.589 24.4184 23.695 24.4235 23.5934 24.4184C23.4918 24.4133 23.4004 24.3677 23.3141 24.3017C23.1414 24.1648 23.055 23.9113 23.055 23.536C23.055 23.2013 23.1363 22.8868 23.3039 22.5927C23.4715 22.2986 23.6747 22.1008 23.9134 22.0044C24.0303 21.9537 24.142 21.9385 24.2385 21.9537C24.335 21.9689 25.1223 21.9537 25.1223 21.9537L24.589 24.4235V24.4184Z" fill="#4A0F7A"/>
<path d="M22.1306 16.7556C22.1306 16.2485 22.2474 15.6907 22.4861 15.0821C22.7198 14.4786 23.0652 13.9258 23.5122 13.4238C23.9591 12.9268 24.4772 12.5718 25.0664 12.3639C25.6099 12.1712 26.0874 12.1407 26.4988 12.2777C26.9102 12.4095 27.2252 12.6732 27.4436 13.0739C27.662 13.4694 27.7737 13.9461 27.7737 14.504C27.7737 14.9452 27.7128 15.3509 27.5858 15.7312C27.4588 16.1116 27.3115 16.4564 27.1337 16.7607C26.961 17.07 26.6461 17.5975 26.189 18.348C26.062 18.561 25.9604 18.7436 25.8842 18.8957C25.808 19.0479 25.7522 19.1848 25.7115 19.3014C25.676 19.4181 25.6455 19.5296 25.6252 19.6412C25.6049 19.7528 25.5744 19.9455 25.5337 20.2143C25.4626 20.7873 25.2391 21.1525 24.8633 21.3046C24.6652 21.3857 24.5026 21.3604 24.3655 21.2336C24.2283 21.1068 24.1623 20.8685 24.1623 20.5135C24.1623 20.0723 24.2131 19.6666 24.3096 19.3014C24.4061 18.9414 24.5382 18.6016 24.7007 18.2973C24.8633 17.988 25.0817 17.6178 25.356 17.1765C25.5947 16.7911 25.7674 16.5071 25.8741 16.3144C25.9807 16.1268 26.0671 15.9239 26.1433 15.716C26.2144 15.5081 26.2499 15.2951 26.2499 15.0821C26.2499 14.6662 26.1382 14.3518 25.9198 14.149C25.6963 13.941 25.4118 13.9005 25.0614 14.0323C24.6449 14.1845 24.3401 14.438 24.142 14.8032C23.9439 15.1683 23.7763 15.6653 23.6391 16.284C23.5071 16.9331 23.2633 17.3236 22.8976 17.4605C22.6791 17.5417 22.5014 17.5062 22.349 17.349C22.2017 17.1918 22.1255 16.994 22.1255 16.7506L22.1306 16.7556ZM24.9293 24.3575C24.7007 24.4539 24.4976 24.4336 24.3249 24.3017C24.1522 24.1648 24.0658 23.9113 24.0658 23.536C24.0658 23.2013 24.1471 22.8868 24.3147 22.5927C24.4823 22.2986 24.6855 22.1008 24.9242 22.0044C25.1629 21.9081 25.361 21.9385 25.5185 22.1008C25.681 22.258 25.7572 22.5065 25.7572 22.8361C25.7572 23.2013 25.6709 23.5258 25.5033 23.8048C25.3356 24.0837 25.1376 24.2713 24.9191 24.3677L24.9293 24.3575Z" fill="#FFC300"/>
<defs>
<linearGradient id="paint0_linear_3378_121279" x1="3.60632" y1="15.7464" x2="18.215" y2="23.2962" gradientUnits="userSpaceOnUse">
<stop stop-color="#A408C7"/>
<stop offset="0.43" stop-color="#C132D6"/>
<stop offset="1" stop-color="#E668EB"/>
</linearGradient>
<linearGradient id="paint1_linear_3378_121279" x1="14.3491" y1="12.3537" x2="16.3036" y2="30.4641" gradientUnits="userSpaceOnUse">
<stop stop-color="#FFCD38"/>
<stop offset="0.93" stop-color="#FFEE51"/>
<stop offset="1" stop-color="#FFF154"/>
</linearGradient>
<linearGradient id="paint2_linear_3378_121279" x1="0.797461" y1="12.4704" x2="0.797461" y2="23.2317" gradientUnits="userSpaceOnUse">
<stop stop-color="#FFCD38"/>
<stop offset="1" stop-color="#FFEC50"/>
</linearGradient>
<linearGradient id="paint3_linear_3378_121279" x1="14.4559" y1="28.0292" x2="14.8661" y2="31.848" gradientUnits="userSpaceOnUse">
<stop stop-color="#FFCD38"/>
<stop offset="0.93" stop-color="#FFEE51"/>
<stop offset="1" stop-color="#FFF154"/>
</linearGradient>
<linearGradient id="paint4_linear_3378_121279" x1="18.5445" y1="27.4257" x2="16.3659" y2="31.8455" gradientUnits="userSpaceOnUse">
<stop stop-color="#FFCD38"/>
<stop offset="0.64" stop-color="#FFAA29"/>
<stop offset="1" stop-color="#FF9C24"/>
</linearGradient>
<linearGradient id="paint5_linear_3378_121279" x1="14.461" y1="9.61521" x2="14.9015" y2="13.6978" gradientUnits="userSpaceOnUse">
<stop stop-color="#FFCD38"/>
<stop offset="0.93" stop-color="#FFEE51"/>
<stop offset="1" stop-color="#FFF154"/>
</linearGradient>
<linearGradient id="paint6_linear_3378_121279" x1="18.5495" y1="12.7493" x2="16.273" y2="10.1238" gradientUnits="userSpaceOnUse">
<stop stop-color="#FFCD38"/>
<stop offset="0.16" stop-color="#FFC334"/>
<stop offset="0.69" stop-color="#FFA628"/>
<stop offset="1" stop-color="#FF9C24"/>
</linearGradient>
<linearGradient id="paint7_linear_3378_121279" x1="30.5827" y1="27.1417" x2="30.5827" y2="23.4092" gradientUnits="userSpaceOnUse">
<stop stop-color="#FFA126"/>
<stop offset="0.32" stop-color="#FFB42E"/>
<stop offset="0.72" stop-color="#FFC635"/>
<stop offset="1" stop-color="#FFCD38"/>
</linearGradient>
<linearGradient id="paint8_linear_3378_121279" x1="30.801" y1="8.8951" x2="30.4618" y2="5.3755" gradientUnits="userSpaceOnUse">
<stop stop-color="#FFCD38"/>
<stop offset="0.33" stop-color="#FFC936"/>
<stop offset="0.63" stop-color="#FFBD31"/>
<stop offset="0.92" stop-color="#FFAB2A"/>
<stop offset="1" stop-color="#FFA528"/>
</linearGradient>
<linearGradient id="paint9_linear_3378_121279" x1="1.41714" y1="27.6235" x2="1.41714" y2="23.1455" gradientUnits="userSpaceOnUse">
<stop stop-color="#FFF154"/>
<stop offset="1" stop-color="#FFCD38"/>
</linearGradient>
<linearGradient id="paint10_linear_3378_121279" x1="1.2086" y1="5.09161" x2="1.61874" y2="8.90537" gradientUnits="userSpaceOnUse">
<stop stop-color="#FFCD38"/>
<stop offset="0.93" stop-color="#FFEE51"/>
<stop offset="1" stop-color="#FFF154"/>
</linearGradient>
</defs>
</svg>
